# MagicaVoxel @ Ephtracy

# group
g FinishLine

# material
mtllib FinishLine.mtl
usemtl palette

# normals
vn -1 0 0
vn 1 0 0
vn 0 0 1
vn 0 0 -1
vn 0 -1 0
vn 0 1 0

# texcoords
vt 0.978516 0.5
vt 0.990234 0.5

# verts
v -14 0 1
v -14 0 -2
v -14 2 1
v -14 2 -0
v -14 2 -1
v -14 2 -2
v -14 18 -0
v -14 18 -1
v -14 28 -0
v -14 28 -1
v 15 0 1
v 15 0 -2
v 15 2 1
v 15 2 -0
v 15 2 -1
v 15 2 -2
v 15 18 -0
v 15 18 -1
v -13 0 1
v -13 0 -2
v -13 2 1
v -13 2 -0
v -13 2 -1
v -13 2 -2
v -13 18 -0
v -13 18 -1
v 16 0 1
v 16 0 -2
v 16 2 1
v 16 2 -0
v 16 2 -1
v 16 2 -2
v 16 18 -0
v 16 18 -1
v 16 28 -0
v 16 28 -1
v -14 0 1
v -14 2 1
v -13 0 1
v -13 2 1
v 15 0 1
v 15 2 1
v 16 0 1
v 16 2 1
v -14 2 -0
v -14 18 -0
v -14 28 -0
v -13 2 -0
v -13 18 -0
v 15 2 -0
v 15 18 -0
v 16 2 -0
v 16 18 -0
v 16 28 -0
v -14 2 -1
v -14 18 -1
v -14 28 -1
v -13 2 -1
v -13 18 -1
v 15 2 -1
v 15 18 -1
v 16 2 -1
v 16 18 -1
v 16 28 -1
v -14 0 -2
v -14 2 -2
v -13 0 -2
v -13 2 -2
v 15 0 -2
v 15 2 -2
v 16 0 -2
v 16 2 -2
v -14 0 1
v -13 0 1
v 15 0 1
v 16 0 1
v -14 0 -2
v -13 0 -2
v 15 0 -2
v 16 0 -2
v -13 18 -0
v 15 18 -0
v -13 18 -1
v 15 18 -1
v -14 2 1
v -13 2 1
v 15 2 1
v 16 2 1
v -14 2 -0
v -13 2 -0
v 15 2 -0
v 16 2 -0
v -14 2 -1
v -13 2 -1
v 15 2 -1
v 16 2 -1
v -14 2 -2
v -13 2 -2
v 15 2 -2
v 16 2 -2
v -14 28 -0
v 16 28 -0
v -14 28 -1
v 16 28 -1

# faces
f 3/1/1 2/1/1 1/1/1
f 4/1/1 2/1/1 3/1/1
f 5/1/1 2/1/1 4/1/1
f 6/1/1 2/1/1 5/1/1
f 7/1/1 5/1/1 4/1/1
f 8/1/1 5/1/1 7/1/1
f 9/2/1 8/2/1 7/2/1
f 10/2/1 8/2/1 9/2/1
f 13/1/1 12/1/1 11/1/1
f 14/1/1 12/1/1 13/1/1
f 15/1/1 12/1/1 14/1/1
f 16/1/1 12/1/1 15/1/1
f 17/1/1 15/1/1 14/1/1
f 18/1/1 15/1/1 17/1/1
f 19/1/2 20/1/2 21/1/2
f 21/1/2 20/1/2 22/1/2
f 22/1/2 20/1/2 23/1/2
f 23/1/2 20/1/2 24/1/2
f 22/1/2 23/1/2 25/1/2
f 25/1/2 23/1/2 26/1/2
f 27/1/2 28/1/2 29/1/2
f 29/1/2 28/1/2 30/1/2
f 30/1/2 28/1/2 31/1/2
f 31/1/2 28/1/2 32/1/2
f 30/1/2 31/1/2 33/1/2
f 33/1/2 31/1/2 34/1/2
f 33/2/2 34/2/2 35/2/2
f 35/2/2 34/2/2 36/2/2
f 39/1/3 38/1/3 37/1/3
f 40/1/3 38/1/3 39/1/3
f 43/1/3 42/1/3 41/1/3
f 44/1/3 42/1/3 43/1/3
f 48/1/3 46/1/3 45/1/3
f 49/2/3 47/2/3 46/2/3
f 49/1/3 46/1/3 48/1/3
f 51/2/3 47/2/3 49/2/3
f 52/1/3 51/1/3 50/1/3
f 53/2/3 47/2/3 51/2/3
f 53/1/3 51/1/3 52/1/3
f 54/2/3 47/2/3 53/2/3
f 55/1/4 56/1/4 58/1/4
f 56/2/4 57/2/4 59/2/4
f 58/1/4 56/1/4 59/1/4
f 59/2/4 57/2/4 61/2/4
f 60/1/4 61/1/4 62/1/4
f 61/2/4 57/2/4 63/2/4
f 62/1/4 61/1/4 63/1/4
f 63/2/4 57/2/4 64/2/4
f 65/1/4 66/1/4 67/1/4
f 67/1/4 66/1/4 68/1/4
f 69/1/4 70/1/4 71/1/4
f 71/1/4 70/1/4 72/1/4
f 77/1/5 74/1/5 73/1/5
f 78/1/5 74/1/5 77/1/5
f 79/1/5 76/1/5 75/1/5
f 80/1/5 76/1/5 79/1/5
f 83/2/5 82/2/5 81/2/5
f 84/2/5 82/2/5 83/2/5
f 85/1/6 86/1/6 89/1/6
f 89/1/6 86/1/6 90/1/6
f 87/1/6 88/1/6 91/1/6
f 91/1/6 88/1/6 92/1/6
f 93/1/6 94/1/6 97/1/6
f 97/1/6 94/1/6 98/1/6
f 95/1/6 96/1/6 99/1/6
f 99/1/6 96/1/6 100/1/6
f 101/2/6 102/2/6 103/2/6
f 103/2/6 102/2/6 104/2/6
