# MagicaVoxel @ Ephtracy

# group
g GrassStands

# material
mtllib GrassStands.mtl
usemtl palette

# normals
vn -1 0 0
vn 1 0 0
vn 0 0 1
vn 0 0 -1
vn 0 -1 0
vn 0 1 0

# texcoords
vt 0.939453 0.5
vt 0.970703 0.5
vt 0.974609 0.5
vt 0.990234 0.5
vt 0.994141 0.5

# verts
v -20 0 20
v -20 0 -20
v -20 1 20
v -20 1 -20
v -18 1 20
v -18 1 -19
v -18 3 20
v -18 3 -19
v -18 9 20
v -18 9 -19
v -18 11 20
v -18 11 -19
v -15 3 20
v -15 3 -19
v -15 4 20
v -15 4 16
v -15 4 15
v -15 4 14
v -15 4 13
v -15 4 -19
v -15 5 16
v -15 5 15
v -15 5 14
v -15 5 13
v -15 6 16
v -15 6 15
v -15 6 14
v -15 6 13
v -14 4 20
v -14 4 16
v -14 4 15
v -14 4 14
v -14 4 13
v -14 4 -19
v -14 5 20
v -14 5 16
v -14 5 15
v -14 5 14
v -14 5 13
v -14 5 -19
v -14 8 20
v -14 8 -19
v -14 9 20
v -14 9 -19
v -13 5 20
v -13 5 -19
v -13 6 20
v -13 6 -19
v -12 6 20
v -12 6 -19
v -12 7 20
v -12 7 -19
v -11 7 20
v -11 7 -19
v -11 8 20
v -11 8 -19
v -14 5 16
v -14 5 15
v -14 5 14
v -14 5 13
v -14 6 16
v -14 6 15
v -14 6 14
v -14 6 13
v -8 1 20
v -8 1 -19
v -8 11 20
v -8 11 -19
v 20 0 20
v 20 0 -20
v 20 1 20
v 20 1 -20
v -20 0 20
v -20 1 20
v -18 1 20
v -18 3 20
v -18 9 20
v -18 11 20
v -15 3 20
v -15 4 20
v -14 4 20
v -14 5 20
v -14 8 20
v -14 9 20
v -13 5 20
v -13 6 20
v -12 6 20
v -12 7 20
v -11 7 20
v -11 8 20
v -8 1 20
v -8 11 20
v 20 0 20
v 20 1 20
v -15 4 16
v -15 5 16
v -15 6 16
v -14 4 16
v -14 5 16
v -14 6 16
v -15 4 14
v -15 5 14
v -15 6 14
v -14 4 14
v -14 5 14
v -14 6 14
v -15 4 15
v -15 5 15
v -15 6 15
v -14 4 15
v -14 5 15
v -14 6 15
v -15 4 13
v -15 5 13
v -15 6 13
v -14 4 13
v -14 5 13
v -14 6 13
v -18 1 -19
v -18 3 -19
v -18 9 -19
v -18 11 -19
v -15 3 -19
v -15 4 -19
v -14 4 -19
v -14 5 -19
v -14 8 -19
v -14 9 -19
v -13 5 -19
v -13 6 -19
v -12 6 -19
v -12 7 -19
v -11 7 -19
v -11 8 -19
v -8 1 -19
v -8 11 -19
v -20 0 -20
v -20 1 -20
v 20 0 -20
v 20 1 -20
v -20 0 20
v 20 0 20
v -20 0 -20
v 20 0 -20
v -14 8 20
v -11 8 20
v -14 8 -19
v -11 8 -19
v -18 9 20
v -14 9 20
v -18 9 -19
v -14 9 -19
v -20 1 20
v -18 1 20
v -8 1 20
v 20 1 20
v -18 1 -19
v -8 1 -19
v -20 1 -20
v 20 1 -20
v -18 3 20
v -15 3 20
v -18 3 -19
v -15 3 -19
v -15 4 20
v -14 4 20
v -15 4 16
v -14 4 16
v -15 4 15
v -14 4 15
v -15 4 14
v -14 4 14
v -15 4 13
v -14 4 13
v -15 4 -19
v -14 4 -19
v -14 5 20
v -13 5 20
v -14 5 16
v -14 5 15
v -14 5 14
v -14 5 13
v -14 5 -19
v -13 5 -19
v -13 6 20
v -12 6 20
v -15 6 16
v -14 6 16
v -15 6 15
v -14 6 15
v -15 6 14
v -14 6 14
v -15 6 13
v -14 6 13
v -13 6 -19
v -12 6 -19
v -12 7 20
v -11 7 20
v -12 7 -19
v -11 7 -19
v -18 11 20
v -8 11 20
v -18 11 -19
v -8 11 -19

# faces
f 3/2/1 2/2/1 1/2/1
f 4/2/1 2/2/1 3/2/1
f 7/3/1 6/3/1 5/3/1
f 8/3/1 6/3/1 7/3/1
f 11/3/1 10/3/1 9/3/1
f 12/3/1 10/3/1 11/3/1
f 15/3/1 14/3/1 13/3/1
f 16/3/1 14/3/1 15/3/1
f 17/3/1 14/3/1 16/3/1
f 18/3/1 14/3/1 17/3/1
f 19/3/1 14/3/1 18/3/1
f 20/3/1 14/3/1 19/3/1
f 21/4/1 17/4/1 16/4/1
f 22/4/1 17/4/1 21/4/1
f 23/5/1 19/5/1 18/5/1
f 24/5/1 19/5/1 23/5/1
f 25/1/1 22/1/1 21/1/1
f 26/1/1 22/1/1 25/1/1
f 27/1/1 24/1/1 23/1/1
f 28/1/1 24/1/1 27/1/1
f 35/3/1 30/3/1 29/3/1
f 36/3/1 30/3/1 35/3/1
f 37/3/1 32/3/1 31/3/1
f 38/3/1 32/3/1 37/3/1
f 39/3/1 34/3/1 33/3/1
f 40/3/1 34/3/1 39/3/1
f 43/3/1 42/3/1 41/3/1
f 44/3/1 42/3/1 43/3/1
f 47/3/1 46/3/1 45/3/1
f 48/3/1 46/3/1 47/3/1
f 51/3/1 50/3/1 49/3/1
f 52/3/1 50/3/1 51/3/1
f 55/3/1 54/3/1 53/3/1
f 56/3/1 54/3/1 55/3/1
f 57/1/2 58/1/2 61/1/2
f 61/1/2 58/1/2 62/1/2
f 59/1/2 60/1/2 63/1/2
f 63/1/2 60/1/2 64/1/2
f 65/3/2 66/3/2 67/3/2
f 67/3/2 66/3/2 68/3/2
f 69/2/2 70/2/2 71/2/2
f 71/2/2 70/2/2 72/2/2
f 75/2/3 74/2/3 73/2/3
f 79/3/3 76/3/3 75/3/3
f 81/3/3 80/3/3 79/3/3
f 84/3/3 78/3/3 77/3/3
f 85/3/3 82/3/3 81/3/3
f 87/3/3 86/3/3 85/3/3
f 89/3/3 88/3/3 87/3/3
f 90/3/3 84/3/3 83/3/3
f 91/2/3 75/2/3 73/2/3
f 91/3/3 90/3/3 89/3/3
f 91/3/3 89/3/3 87/3/3
f 91/3/3 79/3/3 75/3/3
f 91/3/3 87/3/3 85/3/3
f 91/3/3 85/3/3 81/3/3
f 91/3/3 81/3/3 79/3/3
f 92/3/3 84/3/3 90/3/3
f 92/3/3 90/3/3 91/3/3
f 92/3/3 78/3/3 84/3/3
f 93/2/3 91/2/3 73/2/3
f 94/2/3 91/2/3 93/2/3
f 98/4/3 96/4/3 95/4/3
f 99/1/3 97/1/3 96/1/3
f 99/4/3 96/4/3 98/4/3
f 100/1/3 97/1/3 99/1/3
f 104/5/3 102/5/3 101/5/3
f 105/1/3 103/1/3 102/1/3
f 105/5/3 102/5/3 104/5/3
f 106/1/3 103/1/3 105/1/3
f 107/4/4 108/4/4 110/4/4
f 108/1/4 109/1/4 111/1/4
f 110/4/4 108/4/4 111/4/4
f 111/1/4 109/1/4 112/1/4
f 113/5/4 114/5/4 116/5/4
f 114/1/4 115/1/4 117/1/4
f 116/5/4 114/5/4 117/5/4
f 117/1/4 115/1/4 118/1/4
f 119/3/4 120/3/4 123/3/4
f 123/3/4 124/3/4 125/3/4
f 121/3/4 122/3/4 128/3/4
f 125/3/4 126/3/4 129/3/4
f 129/3/4 130/3/4 131/3/4
f 131/3/4 132/3/4 133/3/4
f 127/3/4 128/3/4 134/3/4
f 131/3/4 133/3/4 135/3/4
f 133/3/4 134/3/4 135/3/4
f 119/3/4 123/3/4 135/3/4
f 123/3/4 125/3/4 135/3/4
f 129/3/4 131/3/4 135/3/4
f 125/3/4 129/3/4 135/3/4
f 134/3/4 128/3/4 136/3/4
f 135/3/4 134/3/4 136/3/4
f 128/3/4 122/3/4 136/3/4
f 137/2/4 138/2/4 139/2/4
f 139/2/4 138/2/4 140/2/4
f 143/2/5 142/2/5 141/2/5
f 144/2/5 142/2/5 143/2/5
f 147/3/5 146/3/5 145/3/5
f 148/3/5 146/3/5 147/3/5
f 151/3/5 150/3/5 149/3/5
f 152/3/5 150/3/5 151/3/5
f 153/2/6 154/2/6 157/2/6
f 155/2/6 156/2/6 158/2/6
f 153/2/6 157/2/6 159/2/6
f 157/2/6 158/2/6 159/2/6
f 158/2/6 156/2/6 160/2/6
f 159/2/6 158/2/6 160/2/6
f 161/3/6 162/3/6 163/3/6
f 163/3/6 162/3/6 164/3/6
f 165/3/6 166/3/6 167/3/6
f 167/3/6 166/3/6 168/3/6
f 169/3/6 170/3/6 171/3/6
f 171/3/6 170/3/6 172/3/6
f 173/3/6 174/3/6 175/3/6
f 175/3/6 174/3/6 176/3/6
f 177/3/6 178/3/6 179/3/6
f 179/3/6 178/3/6 180/3/6
f 180/3/6 178/3/6 181/3/6
f 181/3/6 178/3/6 182/3/6
f 182/3/6 178/3/6 183/3/6
f 183/3/6 178/3/6 184/3/6
f 187/1/6 188/1/6 189/1/6
f 189/1/6 188/1/6 190/1/6
f 191/1/6 192/1/6 193/1/6
f 193/1/6 192/1/6 194/1/6
f 185/3/6 186/3/6 195/3/6
f 195/3/6 186/3/6 196/3/6
f 197/3/6 198/3/6 199/3/6
f 199/3/6 198/3/6 200/3/6
f 201/3/6 202/3/6 203/3/6
f 203/3/6 202/3/6 204/3/6
